<?xml version="1.0" encoding="UTF-8" standalone="no"?><svg xmlns="http://www.w3.org/2000/svg" xmlns:xlink="http://www.w3.org/1999/xlink" contentScriptType="application/ecmascript" contentStyleType="text/css" height="426px" preserveAspectRatio="none" style="width:1128px;height:426px;background:#FFFFFF;" version="1.1" viewBox="0 0 1128 426" width="1128px" zoomAndPan="magnify"><defs><filter height="300%" id="fe7xj3unp0sjt" width="300%" x="-1" y="-1"><feGaussianBlur result="blurOut" stdDeviation="2.0"/><feColorMatrix in="blurOut" result="blurOut2" type="matrix" values="0 0 0 0 0 0 0 0 0 0 0 0 0 0 0 0 0 0 .4 0"/><feOffset dx="4.0" dy="4.0" in="blurOut2" result="blurOut3"/><feBlend in="SourceGraphic" in2="blurOut3" mode="normal"/></filter></defs><g><!--MD5=[09ce52be0ee7de43c61b6e2d59bf108b]
class Person--><rect codeLine="1" fill="#FEFECE" filter="url(#fe7xj3unp0sjt)" height="214.0313" id="Person" style="stroke:#A80036;stroke-width:1.5;" width="183" x="47" y="198"/><ellipse cx="114.25" cy="214" fill="#ADD1B2" rx="11" ry="11" style="stroke:#A80036;stroke-width:1.0;"/><path d="M117.0156,209.875 Q117.1719,209.6563 117.3594,209.5469 Q117.5469,209.4375 117.7656,209.4375 Q118.1406,209.4375 118.375,209.7031 Q118.6094,209.9531 118.6094,210.5625 L118.6094,212.0156 Q118.6094,212.625 118.375,212.8906 Q118.1406,213.1563 117.7656,213.1563 Q117.4219,213.1563 117.2188,212.9531 Q117.0156,212.7656 116.9063,212.25 Q116.8594,211.8906 116.6719,211.7031 Q116.3438,211.3281 115.7344,211.1094 Q115.125,210.8906 114.5,210.8906 Q113.7344,210.8906 113.0938,211.2188 Q112.4688,211.5469 111.9688,212.2969 Q111.4844,213.0469 111.4844,214.0781 L111.4844,215.1719 Q111.4844,216.4063 112.375,217.2344 Q113.2656,218.0469 114.8594,218.0469 Q115.7969,218.0469 116.4531,217.7969 Q116.8438,217.6406 117.2656,217.2031 Q117.5313,216.9375 117.6719,216.8594 Q117.8281,216.7813 118.0313,216.7813 Q118.3594,216.7813 118.6094,217.0469 Q118.875,217.2969 118.875,217.6406 Q118.875,217.9844 118.5313,218.3906 Q118.0313,218.9688 117.2344,219.2969 Q116.1563,219.75 114.8594,219.75 Q113.3438,219.75 112.1406,219.125 Q111.1563,218.625 110.4688,217.5625 Q109.7813,216.4844 109.7813,215.2031 L109.7813,214.0469 Q109.7813,212.7188 110.3906,211.5781 Q111.0156,210.4219 112.1094,209.8125 Q113.2031,209.1875 114.4375,209.1875 Q115.1719,209.1875 115.8125,209.3594 Q116.4688,209.5156 117.0156,209.875 Z " fill="#000000"/><text fill="#000000" font-family="sans-serif" font-size="12" lengthAdjust="spacing" textLength="40" x="134.75" y="218.9102">Person</text><line style="stroke:#A80036;stroke-width:1.5;" x1="48" x2="229" y1="230" y2="230"/><rect fill="none" height="6" style="stroke:#C82930;stroke-width:1.0;" width="6" x="55" y="238"/><text fill="#000000" font-family="sans-serif" font-size="11" lengthAdjust="spacing" textLength="60" x="67" y="245.4189">name: String</text><rect fill="none" height="6" style="stroke:#C82930;stroke-width:1.0;" width="6" x="55" y="251.8359"/><text fill="#000000" font-family="sans-serif" font-size="11" lengthAdjust="spacing" textLength="57" x="67" y="259.2549">age: Integer</text><rect fill="none" height="6" style="stroke:#C82930;stroke-width:1.0;" width="6" x="55" y="265.6719"/><text fill="#000000" font-family="sans-serif" font-size="11" lengthAdjust="spacing" textLength="68" x="67" y="273.0908">height: Integer</text><rect fill="none" height="6" style="stroke:#C82930;stroke-width:1.0;" width="6" x="55" y="279.5078"/><text fill="#000000" font-family="sans-serif" font-size="11" lengthAdjust="spacing" textLength="72" x="67" y="286.9268">weight: Integer</text><line style="stroke:#A80036;stroke-width:1.5;" x1="48" x2="229" y1="293.3438" y2="293.3438"/><ellipse cx="58" cy="304.3438" fill="#84BE84" rx="3" ry="3" style="stroke:#038048;stroke-width:1.0;"/><text fill="#000000" font-family="sans-serif" font-size="11" lengthAdjust="spacing" textLength="84" x="67" y="308.7627">getName(): String</text><ellipse cx="58" cy="318.1797" fill="#84BE84" rx="3" ry="3" style="stroke:#038048;stroke-width:1.0;"/><text fill="#000000" font-family="sans-serif" font-size="11" lengthAdjust="spacing" textLength="136" x="67" y="322.5986">setName(name: String): void</text><ellipse cx="58" cy="332.0156" fill="#84BE84" rx="3" ry="3" style="stroke:#038048;stroke-width:1.0;"/><text fill="#000000" font-family="sans-serif" font-size="11" lengthAdjust="spacing" textLength="82" x="67" y="336.4346">getAge(): Integer</text><ellipse cx="58" cy="345.8516" fill="#84BE84" rx="3" ry="3" style="stroke:#038048;stroke-width:1.0;"/><text fill="#000000" font-family="sans-serif" font-size="11" lengthAdjust="spacing" textLength="126" x="67" y="350.2705">setAge(age: Integer): void</text><ellipse cx="58" cy="359.6875" fill="#84BE84" rx="3" ry="3" style="stroke:#038048;stroke-width:1.0;"/><text fill="#000000" font-family="sans-serif" font-size="11" lengthAdjust="spacing" textLength="92" x="67" y="364.1064">getHeight(): Integer</text><ellipse cx="58" cy="373.5234" fill="#84BE84" rx="3" ry="3" style="stroke:#038048;stroke-width:1.0;"/><text fill="#000000" font-family="sans-serif" font-size="11" lengthAdjust="spacing" textLength="147" x="67" y="377.9424">setHeight(heigh : Integer): void</text><ellipse cx="58" cy="387.3594" fill="#84BE84" rx="3" ry="3" style="stroke:#038048;stroke-width:1.0;"/><text fill="#000000" font-family="sans-serif" font-size="11" lengthAdjust="spacing" textLength="95" x="67" y="391.7783">getWeight(): Integer</text><ellipse cx="58" cy="401.1953" fill="#84BE84" rx="3" ry="3" style="stroke:#038048;stroke-width:1.0;"/><text fill="#000000" font-family="sans-serif" font-size="11" lengthAdjust="spacing" textLength="157" x="67" y="405.6143">setWeight(weight : Integer): void</text><!--MD5=[cf8fdaefc782a1097e8f7fd601adea66]
class People--><rect codeLine="17" fill="#FEFECE" filter="url(#fe7xj3unp0sjt)" height="131.0156" id="People" style="stroke:#A80036;stroke-width:1.5;" width="263" x="7" y="7"/><ellipse cx="114.75" cy="23" fill="#ADD1B2" rx="11" ry="11" style="stroke:#A80036;stroke-width:1.0;"/><path d="M117.5156,18.875 Q117.6719,18.6563 117.8594,18.5469 Q118.0469,18.4375 118.2656,18.4375 Q118.6406,18.4375 118.875,18.7031 Q119.1094,18.9531 119.1094,19.5625 L119.1094,21.0156 Q119.1094,21.625 118.875,21.8906 Q118.6406,22.1563 118.2656,22.1563 Q117.9219,22.1563 117.7188,21.9531 Q117.5156,21.7656 117.4063,21.25 Q117.3594,20.8906 117.1719,20.7031 Q116.8438,20.3281 116.2344,20.1094 Q115.625,19.8906 115,19.8906 Q114.2344,19.8906 113.5938,20.2188 Q112.9688,20.5469 112.4688,21.2969 Q111.9844,22.0469 111.9844,23.0781 L111.9844,24.1719 Q111.9844,25.4063 112.875,26.2344 Q113.7656,27.0469 115.3594,27.0469 Q116.2969,27.0469 116.9531,26.7969 Q117.3438,26.6406 117.7656,26.2031 Q118.0313,25.9375 118.1719,25.8594 Q118.3281,25.7813 118.5313,25.7813 Q118.8594,25.7813 119.1094,26.0469 Q119.375,26.2969 119.375,26.6406 Q119.375,26.9844 119.0313,27.3906 Q118.5313,27.9688 117.7344,28.2969 Q116.6563,28.75 115.3594,28.75 Q113.8438,28.75 112.6406,28.125 Q111.6563,27.625 110.9688,26.5625 Q110.2813,25.4844 110.2813,24.2031 L110.2813,23.0469 Q110.2813,21.7188 110.8906,20.5781 Q111.5156,19.4219 112.6094,18.8125 Q113.7031,18.1875 114.9375,18.1875 Q115.6719,18.1875 116.3125,18.3594 Q116.9688,18.5156 117.5156,18.875 Z " fill="#000000"/><text fill="#000000" font-family="sans-serif" font-size="12" lengthAdjust="spacing" textLength="39" x="135.25" y="27.9102">People</text><line style="stroke:#A80036;stroke-width:1.5;" x1="8" x2="269" y1="39" y2="39"/><rect fill="none" height="6" style="stroke:#C82930;stroke-width:1.0;" width="6" x="15" y="47"/><text fill="#000000" font-family="sans-serif" font-size="11" lengthAdjust="spacing" textLength="113" x="27" y="54.4189">members: List&lt;Person&gt;</text><rect fill="none" height="6" style="stroke:#C82930;stroke-width:1.0;" width="6" x="15" y="60.8359"/><text fill="#000000" font-family="sans-serif" font-size="11" lengthAdjust="spacing" textLength="127" x="27" y="68.2549">sortStrategy: SortStrategy</text><line style="stroke:#A80036;stroke-width:1.5;" x1="8" x2="269" y1="74.6719" y2="74.6719"/><ellipse cx="18" cy="85.6719" fill="#84BE84" rx="3" ry="3" style="stroke:#038048;stroke-width:1.0;"/><text fill="#000000" font-family="sans-serif" font-size="11" lengthAdjust="spacing" textLength="40" x="27" y="90.0908">People()</text><ellipse cx="18" cy="99.5078" fill="#84BE84" rx="3" ry="3" style="stroke:#038048;stroke-width:1.0;"/><text fill="#000000" font-family="sans-serif" font-size="11" lengthAdjust="spacing" textLength="237" x="27" y="103.9268">setSortStrategy(sortStrategy: SortStrategy): void</text><ellipse cx="18" cy="113.3438" fill="#84BE84" rx="3" ry="3" style="stroke:#038048;stroke-width:1.0;"/><text fill="#000000" font-family="sans-serif" font-size="11" lengthAdjust="spacing" textLength="139" x="27" y="117.7627">addMember(p: Person) : void</text><ellipse cx="18" cy="127.1797" fill="#84BE84" rx="3" ry="3" style="stroke:#038048;stroke-width:1.0;"/><text fill="#000000" font-family="sans-serif" font-size="11" lengthAdjust="spacing" textLength="131" x="27" y="131.5986">print(out: PrintStream): void</text><!--MD5=[24cac15c1f9aefe6275c5d949d6c000c]
class SortStrategy--><rect codeLine="27" fill="#FEFECE" filter="url(#fe7xj3unp0sjt)" height="61.8359" id="SortStrategy" style="stroke:#A80036;stroke-width:1.5;" width="176" x="516.5" y="274"/><ellipse cx="566.75" cy="290" fill="#B4A7E5" rx="11" ry="11" style="stroke:#A80036;stroke-width:1.0;"/><path d="M567.7031,286.6406 L567.7031,293.2969 L569.4219,293.2969 Q570.0313,293.2969 570.2969,293.5313 Q570.5625,293.7656 570.5625,294.1563 Q570.5625,294.5313 570.2969,294.7656 Q570.0313,295 569.4219,295 L564.2813,295 Q563.6719,295 563.4063,294.7656 Q563.1406,294.5313 563.1406,294.1406 Q563.1406,293.7656 563.4063,293.5313 Q563.6719,293.2969 564.2813,293.2969 L566,293.2969 L566,286.6406 L564.2813,286.6406 Q563.6719,286.6406 563.4063,286.4063 Q563.1406,286.1719 563.1406,285.7813 Q563.1406,285.4063 563.4063,285.1719 Q563.6719,284.9375 564.2813,284.9375 L569.4219,284.9375 Q570.0313,284.9375 570.2969,285.1719 Q570.5625,285.4063 570.5625,285.7813 Q570.5625,286.1719 570.2969,286.4063 Q570.0313,286.6406 569.4219,286.6406 L567.7031,286.6406 Z " fill="#000000"/><text fill="#000000" font-family="sans-serif" font-size="12" font-style="italic" lengthAdjust="spacing" textLength="67" x="587.25" y="294.9102">SortStrategy</text><line style="stroke:#A80036;stroke-width:1.5;" x1="517.5" x2="691.5" y1="306" y2="306"/><line style="stroke:#A80036;stroke-width:1.5;" x1="517.5" x2="691.5" y1="314" y2="314"/><text fill="#000000" font-family="sans-serif" font-size="11" lengthAdjust="spacing" textLength="164" x="522.5" y="329.4189">customSort(people: List&lt;Person&gt;)</text><!--MD5=[6b1b16963de3ac98b715edbb6b5898d8]
class NameSortStrategy--><rect codeLine="31" fill="#FEFECE" filter="url(#fe7xj3unp0sjt)" height="61.8359" id="NameSortStrategy" style="stroke:#A80036;stroke-width:1.5;" width="176" x="305.5" y="41.5"/><ellipse cx="340.3" cy="57.5" fill="#ADD1B2" rx="11" ry="11" style="stroke:#A80036;stroke-width:1.0;"/><path d="M343.0656,53.375 Q343.2219,53.1563 343.4094,53.0469 Q343.5969,52.9375 343.8156,52.9375 Q344.1906,52.9375 344.425,53.2031 Q344.6594,53.4531 344.6594,54.0625 L344.6594,55.5156 Q344.6594,56.125 344.425,56.3906 Q344.1906,56.6563 343.8156,56.6563 Q343.4719,56.6563 343.2688,56.4531 Q343.0656,56.2656 342.9563,55.75 Q342.9094,55.3906 342.7219,55.2031 Q342.3938,54.8281 341.7844,54.6094 Q341.175,54.3906 340.55,54.3906 Q339.7844,54.3906 339.1438,54.7188 Q338.5188,55.0469 338.0188,55.7969 Q337.5344,56.5469 337.5344,57.5781 L337.5344,58.6719 Q337.5344,59.9063 338.425,60.7344 Q339.3156,61.5469 340.9094,61.5469 Q341.8469,61.5469 342.5031,61.2969 Q342.8938,61.1406 343.3156,60.7031 Q343.5813,60.4375 343.7219,60.3594 Q343.8781,60.2813 344.0813,60.2813 Q344.4094,60.2813 344.6594,60.5469 Q344.925,60.7969 344.925,61.1406 Q344.925,61.4844 344.5813,61.8906 Q344.0813,62.4688 343.2844,62.7969 Q342.2063,63.25 340.9094,63.25 Q339.3938,63.25 338.1906,62.625 Q337.2063,62.125 336.5188,61.0625 Q335.8313,59.9844 335.8313,58.7031 L335.8313,57.5469 Q335.8313,56.2188 336.4406,55.0781 Q337.0656,53.9219 338.1594,53.3125 Q339.2531,52.6875 340.4875,52.6875 Q341.2219,52.6875 341.8625,52.8594 Q342.5188,53.0156 343.0656,53.375 Z " fill="#000000"/><text fill="#000000" font-family="sans-serif" font-size="12" lengthAdjust="spacing" textLength="100" x="358.7" y="62.4102">NameSortStrategy</text><line style="stroke:#A80036;stroke-width:1.5;" x1="306.5" x2="480.5" y1="73.5" y2="73.5"/><line style="stroke:#A80036;stroke-width:1.5;" x1="306.5" x2="480.5" y1="81.5" y2="81.5"/><text fill="#000000" font-family="sans-serif" font-size="11" lengthAdjust="spacing" textLength="164" x="311.5" y="96.9189">customSort(people: List&lt;Person&gt;)</text><!--MD5=[8e0a0a9ac050e6d846a9bccac69c9fbb]
class AgeSortStrategy--><rect codeLine="35" fill="#FEFECE" filter="url(#fe7xj3unp0sjt)" height="61.8359" id="AgeSortStrategy" style="stroke:#A80036;stroke-width:1.5;" width="176" x="516.5" y="41.5"/><ellipse cx="557.15" cy="57.5" fill="#ADD1B2" rx="11" ry="11" style="stroke:#A80036;stroke-width:1.0;"/><path d="M559.9156,53.375 Q560.0719,53.1563 560.2594,53.0469 Q560.4469,52.9375 560.6656,52.9375 Q561.0406,52.9375 561.275,53.2031 Q561.5094,53.4531 561.5094,54.0625 L561.5094,55.5156 Q561.5094,56.125 561.275,56.3906 Q561.0406,56.6563 560.6656,56.6563 Q560.3219,56.6563 560.1188,56.4531 Q559.9156,56.2656 559.8063,55.75 Q559.7594,55.3906 559.5719,55.2031 Q559.2438,54.8281 558.6344,54.6094 Q558.025,54.3906 557.4,54.3906 Q556.6344,54.3906 555.9938,54.7188 Q555.3688,55.0469 554.8688,55.7969 Q554.3844,56.5469 554.3844,57.5781 L554.3844,58.6719 Q554.3844,59.9063 555.275,60.7344 Q556.1656,61.5469 557.7594,61.5469 Q558.6969,61.5469 559.3531,61.2969 Q559.7438,61.1406 560.1656,60.7031 Q560.4313,60.4375 560.5719,60.3594 Q560.7281,60.2813 560.9313,60.2813 Q561.2594,60.2813 561.5094,60.5469 Q561.775,60.7969 561.775,61.1406 Q561.775,61.4844 561.4313,61.8906 Q560.9313,62.4688 560.1344,62.7969 Q559.0563,63.25 557.7594,63.25 Q556.2438,63.25 555.0406,62.625 Q554.0563,62.125 553.3688,61.0625 Q552.6813,59.9844 552.6813,58.7031 L552.6813,57.5469 Q552.6813,56.2188 553.2906,55.0781 Q553.9156,53.9219 555.0094,53.3125 Q556.1031,52.6875 557.3375,52.6875 Q558.0719,52.6875 558.7125,52.8594 Q559.3688,53.0156 559.9156,53.375 Z " fill="#000000"/><text fill="#000000" font-family="sans-serif" font-size="12" lengthAdjust="spacing" textLength="87" x="576.85" y="62.4102">AgeSortStrategy</text><line style="stroke:#A80036;stroke-width:1.5;" x1="517.5" x2="691.5" y1="73.5" y2="73.5"/><line style="stroke:#A80036;stroke-width:1.5;" x1="517.5" x2="691.5" y1="81.5" y2="81.5"/><text fill="#000000" font-family="sans-serif" font-size="11" lengthAdjust="spacing" textLength="164" x="522.5" y="96.9189">customSort(people: List&lt;Person&gt;)</text><!--MD5=[ae02baf58179ba852507205754c89be4]
class HeightSortStrategy--><rect codeLine="39" fill="#FEFECE" filter="url(#fe7xj3unp0sjt)" height="61.8359" id="HeightSortStrategy" style="stroke:#A80036;stroke-width:1.5;" width="176" x="727.5" y="41.5"/><ellipse cx="761.4" cy="57.5" fill="#ADD1B2" rx="11" ry="11" style="stroke:#A80036;stroke-width:1.0;"/><path d="M764.1656,53.375 Q764.3219,53.1563 764.5094,53.0469 Q764.6969,52.9375 764.9156,52.9375 Q765.2906,52.9375 765.525,53.2031 Q765.7594,53.4531 765.7594,54.0625 L765.7594,55.5156 Q765.7594,56.125 765.525,56.3906 Q765.2906,56.6563 764.9156,56.6563 Q764.5719,56.6563 764.3688,56.4531 Q764.1656,56.2656 764.0563,55.75 Q764.0094,55.3906 763.8219,55.2031 Q763.4938,54.8281 762.8844,54.6094 Q762.275,54.3906 761.65,54.3906 Q760.8844,54.3906 760.2438,54.7188 Q759.6188,55.0469 759.1188,55.7969 Q758.6344,56.5469 758.6344,57.5781 L758.6344,58.6719 Q758.6344,59.9063 759.525,60.7344 Q760.4156,61.5469 762.0094,61.5469 Q762.9469,61.5469 763.6031,61.2969 Q763.9938,61.1406 764.4156,60.7031 Q764.6813,60.4375 764.8219,60.3594 Q764.9781,60.2813 765.1813,60.2813 Q765.5094,60.2813 765.7594,60.5469 Q766.025,60.7969 766.025,61.1406 Q766.025,61.4844 765.6813,61.8906 Q765.1813,62.4688 764.3844,62.7969 Q763.3063,63.25 762.0094,63.25 Q760.4938,63.25 759.2906,62.625 Q758.3063,62.125 757.6188,61.0625 Q756.9313,59.9844 756.9313,58.7031 L756.9313,57.5469 Q756.9313,56.2188 757.5406,55.0781 Q758.1656,53.9219 759.2594,53.3125 Q760.3531,52.6875 761.5875,52.6875 Q762.3219,52.6875 762.9625,52.8594 Q763.6188,53.0156 764.1656,53.375 Z " fill="#000000"/><text fill="#000000" font-family="sans-serif" font-size="12" lengthAdjust="spacing" textLength="102" x="779.6" y="62.4102">HeightSortStrategy</text><line style="stroke:#A80036;stroke-width:1.5;" x1="728.5" x2="902.5" y1="73.5" y2="73.5"/><line style="stroke:#A80036;stroke-width:1.5;" x1="728.5" x2="902.5" y1="81.5" y2="81.5"/><text fill="#000000" font-family="sans-serif" font-size="11" lengthAdjust="spacing" textLength="164" x="733.5" y="96.9189">customSort(people: List&lt;Person&gt;)</text><!--MD5=[1267f38af45ef172808e7f12d65c7ed7]
class WeightSortStrategy--><rect codeLine="43" fill="#FEFECE" filter="url(#fe7xj3unp0sjt)" height="61.8359" id="WeightSortStrategy" style="stroke:#A80036;stroke-width:1.5;" width="176" x="938.5" y="41.5"/><ellipse cx="971.5" cy="57.5" fill="#ADD1B2" rx="11" ry="11" style="stroke:#A80036;stroke-width:1.0;"/><path d="M974.2656,53.375 Q974.4219,53.1563 974.6094,53.0469 Q974.7969,52.9375 975.0156,52.9375 Q975.3906,52.9375 975.625,53.2031 Q975.8594,53.4531 975.8594,54.0625 L975.8594,55.5156 Q975.8594,56.125 975.625,56.3906 Q975.3906,56.6563 975.0156,56.6563 Q974.6719,56.6563 974.4688,56.4531 Q974.2656,56.2656 974.1563,55.75 Q974.1094,55.3906 973.9219,55.2031 Q973.5938,54.8281 972.9844,54.6094 Q972.375,54.3906 971.75,54.3906 Q970.9844,54.3906 970.3438,54.7188 Q969.7188,55.0469 969.2188,55.7969 Q968.7344,56.5469 968.7344,57.5781 L968.7344,58.6719 Q968.7344,59.9063 969.625,60.7344 Q970.5156,61.5469 972.1094,61.5469 Q973.0469,61.5469 973.7031,61.2969 Q974.0938,61.1406 974.5156,60.7031 Q974.7813,60.4375 974.9219,60.3594 Q975.0781,60.2813 975.2813,60.2813 Q975.6094,60.2813 975.8594,60.5469 Q976.125,60.7969 976.125,61.1406 Q976.125,61.4844 975.7813,61.8906 Q975.2813,62.4688 974.4844,62.7969 Q973.4063,63.25 972.1094,63.25 Q970.5938,63.25 969.3906,62.625 Q968.4063,62.125 967.7188,61.0625 Q967.0313,59.9844 967.0313,58.7031 L967.0313,57.5469 Q967.0313,56.2188 967.6406,55.0781 Q968.2656,53.9219 969.3594,53.3125 Q970.4531,52.6875 971.6875,52.6875 Q972.4219,52.6875 973.0625,52.8594 Q973.7188,53.0156 974.2656,53.375 Z " fill="#000000"/><text fill="#000000" font-family="sans-serif" font-size="12" lengthAdjust="spacing" textLength="104" x="989.5" y="62.4102">WeightSortStrategy</text><line style="stroke:#A80036;stroke-width:1.5;" x1="939.5" x2="1113.5" y1="73.5" y2="73.5"/><line style="stroke:#A80036;stroke-width:1.5;" x1="939.5" x2="1113.5" y1="81.5" y2="81.5"/><text fill="#000000" font-family="sans-serif" font-size="11" lengthAdjust="spacing" textLength="164" x="944.5" y="96.9189">customSort(people: List&lt;Person&gt;)</text><!--MD5=[d72bb40882a93b0f236f19445fb79bc0]
link NameSortStrategy to SortStrategy--><path codeLine="47" d="M421.08,103.63 C457.34,143.24 521.32,213.13 563.32,259.01 " fill="none" id="NameSortStrategy-to-SortStrategy" style="stroke:#A80036;stroke-width:1.0;stroke-dasharray:7.0,7.0;"/><polygon fill="none" points="568.57,254.38,576.91,273.86,558.24,263.83,568.57,254.38" style="stroke:#A80036;stroke-width:1.0;"/><!--MD5=[998aec20cbe95cf51f0e538979ea1cb4]
link AgeSortStrategy to SortStrategy--><path codeLine="48" d="M604.5,103.63 C604.5,141.77 604.5,208 604.5,253.82 " fill="none" id="AgeSortStrategy-to-SortStrategy" style="stroke:#A80036;stroke-width:1.0;stroke-dasharray:7.0,7.0;"/><polygon fill="none" points="611.5,253.86,604.5,273.86,597.5,253.86,611.5,253.86" style="stroke:#A80036;stroke-width:1.0;"/><!--MD5=[17032a8f8ae9d8b1cd27134549468f85]
link HeightSortStrategy to SortStrategy--><path codeLine="49" d="M787.92,103.63 C751.66,143.24 687.68,213.13 645.68,259.01 " fill="none" id="HeightSortStrategy-to-SortStrategy" style="stroke:#A80036;stroke-width:1.0;stroke-dasharray:7.0,7.0;"/><polygon fill="none" points="650.76,263.83,632.09,273.86,640.43,254.38,650.76,263.83" style="stroke:#A80036;stroke-width:1.0;"/><!--MD5=[5eafe0729975a5b74649b3e21ab20d18]
link WeightSortStrategy to SortStrategy--><path codeLine="50" d="M979.08,103.58 C961.2,114.67 940.57,127.17 921.5,138 C841.36,183.52 747.65,232.03 683,264.78 " fill="none" id="WeightSortStrategy-to-SortStrategy" style="stroke:#A80036;stroke-width:1.0;stroke-dasharray:7.0,7.0;"/><polygon fill="none" points="685.76,271.23,664.75,274,679.45,258.73,685.76,271.23" style="stroke:#A80036;stroke-width:1.0;"/><!--MD5=[229ad90aec11d960298b97a54d4095e1]
link People to Person--><path codeLine="52" d="M138.5,150.01 C138.5,150.01 138.5,173.45 138.5,184.74 " fill="none" id="People-Person" style="stroke:#A80036;stroke-width:1.0;"/><polygon fill="#A80036" points="138.5,197.99,142.5,188.99,138.5,192.99,134.5,188.99,138.5,197.99" style="stroke:#A80036;stroke-width:1.0;"/><line style="stroke:#A80036;stroke-width:1.0;" x1="138.5" x2="138.5" y1="192.99" y2="184.99"/><polygon fill="#FFFFFF" points="138.5,138.01,134.5,144.01,138.5,150.01,142.5,144.01,138.5,138.01" style="stroke:#A80036;stroke-width:1.0;"/><text fill="#000000" font-family="sans-serif" font-size="13" lengthAdjust="spacing" textLength="7" x="131.1172" y="159.5636">1</text><text fill="#000000" font-family="sans-serif" font-size="13" lengthAdjust="spacing" textLength="5" x="133.3164" y="187.0508">*</text><!--MD5=[a7f5c7da628e3d59504e8c45961fb70b]
link People to SortStrategy--><path codeLine="53" d="M279.6841,143.3343 C279.6841,143.3343 465.01,235 531.96,268.12 " fill="none" id="People-SortStrategy" style="stroke:#A80036;stroke-width:1.0;"/><polygon fill="#A80036" points="543.63,273.89,537.3392,266.312,539.1491,271.6715,533.7896,273.4814,543.63,273.89" style="stroke:#A80036;stroke-width:1.0;"/><line style="stroke:#A80036;stroke-width:1.0;" x1="539.1491" x2="531.98" y1="271.6715" y2="268.13"/><polygon fill="#FFFFFF" points="268.93,138.01,272.5323,144.2569,279.6841,143.3343,276.0818,137.0875,268.93,138.01" style="stroke:#A80036;stroke-width:1.0;"/><!--MD5=[0e8e4a01dcbde6866b6cf0e9f2de3a88]
@startuml
class Person {
    - name: String
    - age: Integer
    - height: Integer
    - weight: Integer

    + getName(): String
    + setName(name: String): void
    + getAge(): Integer
    + setAge(age: Integer): void
    + getHeight(): Integer
    + setHeight(heigh : Integer): void
    + getWeight(): Integer
    + setWeight(weight : Integer): void
}

class People {
    - members: List<Person>
    - sortStrategy: SortStrategy

    + People()
    + setSortStrategy(sortStrategy: SortStrategy): void
    + addMember(p: Person) : void
    + print(out: PrintStream): void
}

interface SortStrategy {
    customSort(people: List<Person>)
}

class NameSortStrategy {
    customSort(people: List<Person>)
}

class AgeSortStrategy {
    customSort(people: List<Person>)
}

class HeightSortStrategy {
    customSort(people: List<Person>)
}

class WeightSortStrategy {
    customSort(people: List<Person>)
}

NameSortStrategy ..|> SortStrategy
AgeSortStrategy ..|> SortStrategy
HeightSortStrategy ..|> SortStrategy
WeightSortStrategy ..|> SortStrategy

People "1" o- -> "*" Person 
People  o- -> SortStrategy
@enduml

PlantUML version 1.2022.0(Tue Jan 11 23:16:42 ICT 2022)
(GPL source distribution)
Java Runtime: Java(TM) SE Runtime Environment
JVM: Java HotSpot(TM) 64-Bit Server VM
Default Encoding: Cp1252
Language: en
Country: US
--></g></svg>